# xmcd
# Copyright (C) 1995-1998 Ti Kan
#
# Track frame offsets:
#       150
#       12395
#       26800
#       40495
#       53385
#       58700
#       68025
#       80652
#       90527
#       100835
#       106050
#       118807
#       123942
#       138405
#       147672
#       160160
#       178060
#       187482
#
# Disc length: 2756 seconds
#
# Revision: 0
# Processed by: cddbd v1.5.2PL0 Copyright (c) Steve Scherf et al.
# Submitted via: CD-Import v1.0
#
DISCID=030ac212
DTITLE=Tocotronic - Es Ist Egal, Aber
DYEAR=1997
DGENRE=
TTITLE0=Gehen Die Leute
TTITLE1=Sie Wollen Uns Erzählen
TTITLE2=Ich Bin Viel Zu Lange Mit Euch Mitgegangen
TTITLE3=Ein Abend Im Rotary Club
TTITLE4=Alles Was Ich Will, Ist Nichts Mit Euch Zu Tun Haben
TTITLE5=Auf Den Hund Gekommen
TTITLE6=Es Ist Egal, Aber
TTITLE7=Meine Schwester
TTITLE8=Du Und Deine Welt
TTITLE9=Mein Neues Hobby
TTITLE10=Vier Geschichten Von Dir
TTITLE11=Du Bist Immer Für Mich Da
TTITLE12=Der Schönste Tag In Meinem Leben
TTITLE13=So Schnell
TTITLE14=Dieses Jahr
TTITLE15=Für Immer Dein Feind
TTITLE16=Liebes Tagebuch
TTITLE17=Nach Bahrenfeld Im Bus
EXTD=
EXTT0=
EXTT1=
EXTT2=
EXTT3=
EXTT4=
EXTT5=
EXTT6=
EXTT7=
EXTT8=
EXTT9=
EXTT10=
EXTT11=
EXTT12=
EXTT13=
EXTT14=
EXTT15=
EXTT16=
EXTT17=
PLAYORDER=
